<svg width="50" height="51" viewBox="0 0 50 51" fill="none" xmlns="http://www.w3.org/2000/svg">
<path d="M40.414 0.831001H10C4.71701 0.831001 0.419006 5.128 0.419006 10.411V20.531V40.826C0.419006 46.109 4.71701 50.406 10 50.406H40.415C45.698 50.406 49.995 46.109 49.995 40.826V20.53V10.41C49.994 5.127 45.697 0.831001 40.414 0.831001ZM43.162 6.544L44.258 6.54V7.631V14.943L35.883 14.97L35.854 6.568L43.162 6.544ZM18.131 20.53C19.719 18.333 22.295 16.892 25.207 16.892C28.119 16.892 30.695 18.333 32.281 20.53C33.314 21.964 33.933 23.718 33.933 25.618C33.933 30.429 30.015 34.343 25.206 34.343C20.394 34.343 16.48 30.429 16.48 25.618C16.481 23.718 17.098 21.964 18.131 20.53ZM45.164 40.825C45.164 43.446 43.033 45.575 40.414 45.575H10C7.38001 45.575 5.24901 43.446 5.24901 40.825V20.53H12.649C12.01 22.102 11.651 23.819 11.651 25.618C11.651 33.091 17.731 39.175 25.207 39.175C32.682 39.175 38.762 33.091 38.762 25.618C38.762 23.819 38.401 22.102 37.762 20.53H45.164V40.825Z" fill="black"/>
</svg>
