<svg width="50" height="49" viewBox="0 0 50 49" fill="none" xmlns="http://www.w3.org/2000/svg">
<path d="M40.911 23.21H9.782C4.834 23.21 0.822998 27.225 0.822998 32.172V39.373C0.822998 44.32 4.834 48.334 9.782 48.334H40.911C45.858 48.334 49.87 44.32 49.87 39.373V32.172C49.87 27.225 45.858 23.21 40.911 23.21ZM16.322 28.816H13.428V43.196H10.632V28.816H7.74V26.37H16.322V28.816ZM24.497 43.196H22.017V41.836C21.556 42.339 21.081 42.723 20.585 42.982C20.089 43.252 19.61 43.378 19.144 43.378C18.568 43.378 18.14 43.195 17.847 42.823C17.559 42.452 17.412 41.902 17.412 41.159V30.782H19.892V40.305C19.892 40.599 19.947 40.81 20.046 40.941C20.153 41.076 20.323 41.138 20.556 41.138C20.736 41.138 20.968 41.052 21.247 40.878C21.528 40.702 21.784 40.482 22.017 40.21V30.781H24.497V43.196ZM33.501 40.633C33.501 41.51 33.306 42.184 32.917 42.654C32.53 43.124 31.964 43.355 31.231 43.355C30.743 43.355 30.309 43.267 29.932 43.085C29.553 42.905 29.196 42.628 28.871 42.244V43.195H26.361V26.37H28.871V31.789C29.207 31.414 29.562 31.123 29.933 30.928C30.312 30.729 30.693 30.633 31.079 30.633C31.864 30.633 32.462 30.895 32.876 31.424C33.292 31.953 33.499 32.728 33.499 33.744V40.633H33.501ZM42.104 37.288H37.358V39.627C37.358 40.279 37.438 40.733 37.6 40.986C37.766 41.24 38.045 41.364 38.442 41.364C38.854 41.364 39.139 41.257 39.305 41.043C39.465 40.827 39.551 40.357 39.551 39.627V39.062H42.104V39.699C42.104 40.971 41.795 41.93 41.168 42.577C40.551 43.218 39.621 43.536 38.385 43.536C37.272 43.536 36.395 43.197 35.758 42.515C35.123 41.837 34.799 40.896 34.799 39.7V34.124C34.799 33.051 35.153 32.168 35.856 31.491C36.557 30.814 37.46 30.476 38.571 30.476C39.708 30.476 40.581 30.789 41.19 31.417C41.799 32.046 42.104 32.946 42.104 34.123V37.288Z" fill="black"/>
<path d="M38.466 32.646C38.07 32.646 37.788 32.757 37.616 32.989C37.44 33.207 37.358 33.58 37.358 34.101V35.356H39.551V34.101C39.551 33.58 39.463 33.206 39.289 32.989C39.122 32.758 38.843 32.646 38.466 32.646Z" fill="black"/>
<path d="M29.909 32.604C29.733 32.604 29.555 32.643 29.384 32.724C29.21 32.803 29.04 32.934 28.872 33.104V40.837C29.071 41.037 29.268 41.191 29.46 41.279C29.651 41.364 29.849 41.412 30.06 41.412C30.365 41.412 30.587 41.324 30.73 41.146C30.871 40.97 30.943 40.689 30.943 40.292V33.881C30.943 33.459 30.859 33.143 30.683 32.926C30.501 32.712 30.243 32.604 29.909 32.604Z" fill="black"/>
<path d="M13.858 18.898H17.002V11.208L20.663 0.360001H17.467L15.521 7.77H15.323L13.28 0.360001H10.113L13.858 11.554V18.898Z" fill="black"/>
<path d="M24.923 19.243C26.193 19.243 27.189 18.91 27.915 18.244C28.636 17.575 28.997 16.662 28.997 15.492V8.428C28.997 7.387 28.628 6.53 27.893 5.869C27.153 5.21 26.205 4.878 25.049 4.878C23.779 4.878 22.768 5.192 22.016 5.819C21.266 6.446 20.889 7.287 20.889 8.35V15.438C20.889 16.601 21.256 17.521 21.989 18.211C22.722 18.898 23.702 19.243 24.923 19.243ZM23.765 8.246C23.765 7.949 23.872 7.709 24.081 7.521C24.298 7.337 24.573 7.248 24.915 7.248C25.284 7.248 25.583 7.337 25.811 7.521C26.038 7.709 26.151 7.949 26.151 8.246V15.697C26.151 16.062 26.04 16.352 25.815 16.561C25.592 16.771 25.292 16.874 24.915 16.874C24.546 16.874 24.261 16.774 24.061 16.564C23.864 16.359 23.764 16.071 23.764 15.696L23.765 8.246Z" fill="black"/>
<path d="M33.214 19.098C33.739 19.098 34.278 18.948 34.833 18.66C35.394 18.368 35.931 17.941 36.442 17.384V18.899H39.235V5.224H36.442V15.604C36.182 15.901 35.893 16.145 35.583 16.339C35.267 16.531 35.007 16.627 34.802 16.627C34.54 16.627 34.347 16.555 34.234 16.406C34.119 16.263 34.054 16.029 34.054 15.708V5.224H31.265V16.653C31.265 17.468 31.429 18.077 31.753 18.481C32.083 18.891 32.565 19.098 33.214 19.098Z" fill="black"/>
</svg>
