<svg width="19" height="18" viewBox="0 0 19 18" fill="none" xmlns="http://www.w3.org/2000/svg">
<path d="M10.1494 2.24997L17.2939 14.625C17.3598 14.739 17.3944 14.8683 17.3944 15C17.3944 15.1316 17.3598 15.2609 17.294 15.375C17.2281 15.489 17.1335 15.5837 17.0194 15.6495C16.9054 15.7153 16.7761 15.75 16.6444 15.75H2.35545C2.2238 15.75 2.09447 15.7153 1.98046 15.6495C1.86644 15.5837 1.77177 15.489 1.70594 15.375C1.64012 15.2609 1.60547 15.1316 1.60547 15C1.60547 14.8683 1.64012 14.739 1.70595 14.625L8.85045 2.24997C8.91628 2.13596 9.01095 2.04129 9.12497 1.97547C9.23898 1.90965 9.3683 1.875 9.49995 1.875C9.63159 1.875 9.76092 1.90965 9.87493 1.97547C9.98894 2.04129 10.0836 2.13596 10.1494 2.24997V2.24997ZM3.65445 14.25H15.3454L9.49995 4.12497L3.65445 14.25V14.25ZM8.74995 12H10.2499V13.5H8.74995V12ZM8.74995 6.74997H10.2499V10.5H8.74995V6.74997Z" fill="white"/>
</svg>
