<svg width="138" height="46" viewBox="0 0 138 46" fill="none" xmlns="http://www.w3.org/2000/svg">
<g clip-path="url(#clip0_7_274)">
<path d="M21.0093 43.5096V44.234H85.8972V43.5096H21.0093Z" fill="white"/>
<path d="M114.23 22.7166H109.322V30.0389C109.102 30.0444 108.301 30.0712 108.301 30.0712C105.402 30.0712 103.262 29.3579 101.954 27.9579C100.628 26.5407 99.9573 24.9558 99.9573 23.2465C99.9512 21.9917 100.31 20.7617 100.991 19.7034C101.663 18.645 102.617 17.7912 103.749 17.2366C104.947 16.662 106.262 16.3694 107.594 16.3816C109.502 16.3816 111.449 16.7233 113.39 17.3894L114.198 17.6697V14.2951L113.721 14.1904C111.515 13.7062 109.501 13.4613 107.738 13.4613C105.389 13.4613 103.193 13.8479 101.216 14.6053C99.2073 15.3801 97.6182 16.5422 96.5023 18.0508C95.3937 19.566 94.8005 21.3908 94.8082 23.2617C94.8159 25.1325 95.4242 26.9525 96.5452 28.4587C97.6866 29.9799 99.2749 31.1357 101.274 31.8845C103.228 32.619 105.483 32.9922 107.974 32.9922C109.719 32.9922 111.651 32.8096 113.734 32.4513C113.704 32.4513 114.114 32.3852 114.114 32.3852L114.232 32.3616V22.7166H114.23Z" fill="white"/>
<path d="M0 32.6411H4.9972V24.6983H15.0672V21.778H4.9972V17.0807H16.2451V14.1605H0V32.6411Z" fill="white"/>
<path d="M38.5891 14.1605H33.5903V32.6411H46.5593V29.7232H38.5891V14.1605Z" fill="white"/>
<path d="M58.2279 13.6211C54.7808 13.6211 52.0925 14.5116 50.2418 16.2666C48.391 18.0216 47.4453 20.4261 47.4453 23.3842C47.4453 26.3423 48.387 28.7437 50.2442 30.5089C52.1013 32.2741 54.7856 33.1536 58.2303 33.1536C61.6749 33.1536 64.3751 32.2631 66.2212 30.5089C68.0672 28.7547 69.0136 26.3486 69.0136 23.3842C69.0136 20.4198 68.0751 18.0302 66.2212 16.2689C64.3672 14.5076 61.6829 13.6211 58.2279 13.6211ZM62.3637 28.561C61.2685 29.6633 59.8814 30.2278 58.2334 30.2278C56.5855 30.2278 55.1944 29.6665 54.0976 28.561C53.0008 27.4556 52.4409 25.7116 52.4409 23.3842C52.4409 21.0568 52.9977 19.3199 54.096 18.209C55.1944 17.098 56.5791 16.5445 58.2319 16.5445C59.8846 16.5445 61.2669 17.1043 62.3621 18.209C63.4573 19.3136 64.0204 21.0607 64.0204 23.3842C64.0204 25.7077 63.4557 27.4516 62.3637 28.561Z" fill="white"/>
<path d="M26.1241 14.1691H21.1333V32.6403H26.1241V14.1691Z" fill="white"/>
<path d="M129.191 14.1762H125.482L116.786 32.6403H121.34C121.34 32.6403 123.477 27.9674 123.548 27.8146H131.126C131.196 27.9674 133.342 32.6403 133.342 32.6403H138.001L129.191 14.1762ZM124.371 25.1566L124.375 25.1503C124.712 24.4023 126.58 20.1852 126.89 19.4404C126.902 19.416 127.072 18.8751 127.192 18.4956C127.312 18.8586 127.499 19.4483 127.499 19.4483C127.499 19.4483 129.964 25.1818 129.958 25.1605C129.968 25.1778 124.391 25.1164 124.371 25.1566Z" fill="white"/>
<path d="M85.3889 24.1716C86.527 23.748 86.9637 23.3449 87.549 22.9417C88.3284 22.4167 88.9966 21.7459 89.5159 20.9671C90.0162 20.1955 90.2691 19.4081 90.2691 18.6255C90.2691 17.7405 89.8715 16.917 89.096 16.1847C88.3643 15.4927 87.3383 14.9714 86.0418 14.6376C84.7454 14.3038 82.9869 14.1605 80.4481 14.1605H73.4634V32.6411H78.4661V17.0807H80.441C85.5432 17.0807 85.2735 18.7342 85.2735 19.1593C85.2735 21.3387 81.7819 22.6764 80.4139 23.1197V25.4605L87.8902 32.608L92.6838 32.6411H94.195L85.3889 24.1716Z" fill="white"/>
<path d="M96.4165 41.7609L94.8584 45.9126H95.9623C95.9623 45.9126 96.2511 45.0906 96.2709 45.041H97.5642C97.5857 45.0906 97.8616 45.9126 97.8616 45.9126H98.9966L97.4528 41.7609H96.4165ZM96.337 44.2568C96.3632 44.1899 96.8142 42.9829 96.9287 42.6782C96.9987 42.8695 97.4497 44.1513 97.4854 44.2568H96.337Z" fill="white"/>
<path d="M108.294 41.7609H107.213V45.9126H108.294V41.7609Z" fill="white"/>
<path d="M104.47 45.5686C104.466 45.5607 104.425 45.3379 104.425 45.3379L104.407 45.0851L104.396 44.867L104.351 44.5521L104.251 44.2529L104.055 44.0041C104.055 44.0041 103.942 43.9419 103.926 43.9317C104.071 43.8542 104.196 43.7435 104.289 43.6089C104.398 43.4079 104.453 43.1826 104.448 42.9546C104.449 42.7964 104.419 42.6396 104.361 42.4924C104.301 42.3504 104.215 42.2208 104.107 42.1105C103.992 42.0003 103.857 41.9124 103.709 41.8515C103.544 41.7877 103.369 41.7556 103.192 41.757H100.973V45.9087H102.059V44.3797H102.802C102.985 44.3797 103.113 44.4151 103.187 44.4907C103.278 44.5991 103.331 44.7339 103.339 44.8749L103.39 45.3662C103.39 45.3615 103.483 45.8386 103.483 45.8386L103.511 45.9095H104.625L104.545 45.7426C104.545 45.7426 104.471 45.5796 104.47 45.5686ZM103.306 43.4711C103.191 43.5546 103.05 43.5948 102.908 43.5844H101.996V42.6152H102.908C103.094 42.6152 103.226 42.653 103.306 42.7254C103.385 42.7979 103.428 42.9207 103.428 43.0908C103.428 43.2608 103.387 43.3971 103.306 43.4711Z" fill="white"/>
<path d="M113.95 44.0332C113.856 43.8855 113.733 43.7585 113.587 43.66L113.17 43.4647L112.861 43.386C112.864 43.3889 112.866 43.3924 112.868 43.3962C112.823 43.3749 112.686 43.3395 112.274 43.2301L111.932 43.1167C111.932 43.1167 111.811 43.0309 111.811 43.0277C111.811 43.0183 111.784 42.8939 111.784 42.8939L111.82 42.7553C111.82 42.7553 111.932 42.6443 111.933 42.6443L112.082 42.5868C112.076 42.5868 112.266 42.5663 112.266 42.5663L112.537 42.5923L112.74 42.6711L112.861 42.8112L112.922 43.0553V43.1608H113.972V43.0474C113.98 42.8289 113.931 42.6121 113.83 42.4175C113.741 42.2443 113.611 42.0949 113.451 41.9821C113.286 41.8704 113.103 41.7886 112.91 41.7404L112.296 41.6696L111.739 41.7483C111.557 41.7961 111.385 41.8761 111.231 41.9845C111.08 42.0936 110.954 42.2338 110.863 42.3955C110.763 42.5721 110.713 42.7719 110.717 42.9742C110.712 43.1404 110.747 43.3054 110.818 43.4558C110.89 43.6063 110.996 43.738 111.128 43.8403L111.526 44.0654L111.964 44.2032C111.96 44.1997 111.957 44.1958 111.954 44.1914C111.996 44.2095 112.1 44.2379 112.386 44.3119L112.745 44.426L112.973 44.5638L113.039 44.7441L112.988 44.9166L112.837 45.0378L112.616 45.1016L112.393 45.1189L112.09 45.0835C112.1 45.0835 111.861 44.9748 111.861 44.9748L111.702 44.789L111.644 44.5079V44.3946H110.587V44.5079C110.579 44.7423 110.629 44.9753 110.733 45.1858C110.826 45.3724 110.962 45.5344 111.131 45.6582C111.303 45.7841 111.499 45.8756 111.707 45.9275L112.36 46.011C112.613 46.0124 112.865 45.9758 113.107 45.9023C113.308 45.847 113.494 45.751 113.655 45.6204C113.802 45.5029 113.92 45.3526 113.998 45.1819C114.072 45.0074 114.109 44.8199 114.107 44.6308C114.114 44.4207 114.06 44.213 113.95 44.0332Z" fill="white"/>
<path d="M92.0445 41.7648H90.208V45.9126H91.1235V44.4111H92.0445C92.5145 44.4111 92.8796 44.2891 93.1317 44.0434C93.4252 43.7505 93.488 43.3663 93.488 43.0923C93.488 42.6947 93.3481 41.7648 92.0445 41.7648ZM92.0071 43.6175H91.1235V42.5561H92.0174C92.4032 42.5561 92.5742 42.7136 92.5742 43.0876C92.5702 43.4789 92.2815 43.619 92.0071 43.619V43.6175Z" fill="white"/>
<path d="M22.4879 0.125977H21.1509V5.63741H25.4211V4.5304H22.4879V0.125977Z" fill="white"/>
<path d="M30.3361 0.125977L27.9795 5.63741H29.3769C29.3769 5.63741 29.8541 4.43592 29.9194 4.26192H32.0056L32.5472 5.63741H33.986L31.6238 0.125977H30.3361ZM30.2105 3.24781C30.3329 2.93287 30.7847 1.96916 30.9668 1.49596C31.1537 1.97309 31.6031 2.93602 31.7232 3.24781H30.2105Z" fill="white"/>
<path d="M65.0258 0.125977L62.6724 5.63741H64.0706C64.0706 5.63741 64.5478 4.43592 64.613 4.26192H66.6945C66.7637 4.43592 67.2337 5.63741 67.2337 5.63741H68.6765L66.3135 0.125977H65.0258ZM64.9009 3.24781C65.0258 2.93287 65.4768 1.96916 65.6605 1.49596C65.8482 1.97309 66.292 2.93602 66.4121 3.24781H64.9009Z" fill="white"/>
<path d="M41.3026 2.65727C41.4904 2.54473 41.6453 2.38572 41.7521 2.19589C41.8589 2.00606 41.914 1.79196 41.9118 1.57467C41.9118 0.653469 41.2278 0.129883 40.0356 0.129883H37.0713V5.64131H39.8853C41.3169 5.64131 42.1743 5.03978 42.1743 4.03355C42.1727 3.36509 41.8506 2.88954 41.3026 2.65727ZM38.4067 1.18808H39.8908C40.4611 1.18808 40.574 1.3983 40.574 1.73922C40.574 2.25808 40.0539 2.29745 39.8908 2.29745H38.4067V1.18808ZM40.0284 4.57367H38.4067V3.27376H40.0284C40.3983 3.27376 40.8349 3.38478 40.8349 3.91073C40.8349 4.45872 40.3983 4.57052 40.0284 4.57052V4.57367Z" fill="white"/>
<path d="M48.3193 0C46.5966 0 45.394 1.18102 45.394 2.8809C45.394 4.58079 46.5966 5.76102 48.3193 5.76102C50.0421 5.76102 51.2478 4.57449 51.2478 2.8809C51.2478 1.18732 50.0453 0 48.3193 0ZM48.3193 4.69732C47.1502 4.69732 46.7286 3.7588 46.7286 2.8809C46.7286 2.00301 47.147 1.06371 48.3193 1.06371C49.4917 1.06371 49.9101 2.0038 49.9101 2.8809C49.9101 3.75801 49.4949 4.69732 48.3193 4.69732Z" fill="white"/>
<path d="M81.3727 0C79.6476 0 78.4458 1.18102 78.4458 2.8809C78.4458 4.58079 79.6476 5.76102 81.3727 5.76102C83.0978 5.76102 84.3012 4.57449 84.3012 2.8809C84.3012 1.18732 83.093 0 81.3727 0ZM81.3727 4.69732C80.2019 4.69732 79.782 3.7588 79.782 2.8809C79.782 2.00301 80.2027 1.06528 81.3727 1.06528C82.5427 1.06528 82.9634 2.0038 82.9634 2.8809C82.9634 3.75801 82.5466 4.69732 81.3727 4.69732Z" fill="white"/>
<path d="M59.6802 4.10838C59.6802 3.43599 59.3621 3.12262 59.0829 2.97618C59.5267 2.7069 59.7796 2.26756 59.7796 1.68886C59.7796 0.692867 59.0241 0.125977 57.7117 0.125977H54.792V5.63741H56.1298V3.50055H57.4516C58.2263 3.50055 58.4355 3.76274 58.4355 4.71228C58.4355 4.97368 58.4355 5.30043 58.62 5.56576L58.6693 5.63741H60.2378L59.9491 5.36105C59.782 5.20201 59.6802 4.72409 59.6802 4.10838ZM57.6179 2.48802H56.1258V1.18811H57.6044C58.2049 1.18811 58.4435 1.36684 58.4435 1.81799C58.4435 2.26914 58.173 2.48802 57.6179 2.48802Z" fill="white"/>
<path d="M97.9254 4.10837C97.9254 3.43597 97.6072 3.12261 97.3225 2.97616C97.7679 2.70689 98.0176 2.26755 98.0176 1.68885C98.0176 0.692855 97.2644 0.12439 95.9497 0.12439H93.0308V5.63582H94.3693V3.50054H95.6888C96.4643 3.50054 96.6767 3.76272 96.6767 4.71226C96.6767 4.97366 96.6767 5.30041 96.8588 5.56575L96.9041 5.6374H98.4726L98.1839 5.36104C98.0224 5.20199 97.9254 4.72407 97.9254 4.10837ZM95.8574 2.48801H94.3685V1.1881H95.8479C96.4532 1.1881 96.6862 1.36446 96.6862 1.81797C96.6862 2.27149 96.4166 2.48801 95.8598 2.48801H95.8574Z" fill="white"/>
<path d="M70.4617 1.23064H72.291V5.63979H73.6256V1.23064H75.4653V0.128357H70.4609L70.4617 1.23064Z" fill="white"/>
<path d="M89.171 0.12439H87.834V5.63661H89.171V0.12439Z" fill="white"/>
<path d="M102.992 3.33286H105.903V2.26758H102.992V1.23064H106.136V0.128357H101.654V5.63979H106.192V4.53041H102.991L102.992 3.33286Z" fill="white"/>
<path d="M113.13 2.49038L111.699 2.1471L111.46 2.09041C110.953 1.96679 110.895 1.73846 110.895 1.58021C110.895 1.08969 111.642 1.06528 111.791 1.06528C112.819 1.06528 112.858 1.64083 112.874 1.83295L112.885 1.98097H114.21V1.81799C114.21 0.732233 113.256 0 111.832 0C110.739 0 109.558 0.527523 109.558 1.68886C109.558 2.20536 109.802 2.87933 110.958 3.1612L111.727 3.34072L112.669 3.58479C112.924 3.67219 113.035 3.821 113.035 4.07452C113.035 4.4619 112.637 4.69732 111.981 4.69732C111.493 4.69732 110.677 4.57055 110.677 3.74541V3.58322H109.339V3.74856C109.362 5.00832 110.323 5.76102 111.912 5.76102C113.048 5.76102 114.369 5.28861 114.369 3.97059C114.373 3.39898 113.989 2.72186 113.13 2.49038Z" fill="white"/>
</g>
<defs>
<clipPath id="clip0_7_274">
<rect width="138" height="46" fill="white"/>
</clipPath>
</defs>
</svg>
